<?xml version="1.0" standalone="no"?>
<!DOCTYPE svg PUBLIC "-//W3C//DTD SVG 20010904//EN"
 "http://www.w3.org/TR/2001/REC-SVG-20010904/DTD/svg10.dtd">
<svg version="1.0" xmlns="http://www.w3.org/2000/svg"
 width="500.000000pt" height="500.000000pt" viewBox="0 0 500.000000 500.000000"
 preserveAspectRatio="xMidYMid meet">

<g transform="translate(0.000000,500.000000) scale(0.100000,-0.100000)"
fill="#000000" stroke="none">
<path d="M1443 3800 c-16 -6 -21 -15 -17 -27 4 -14 4 -15 -4 -4 -25 35 -122
-58 -147 -142 -28 -96 -11 -209 33 -215 12 -2 27 -13 34 -25 6 -12 15 -25 21
-28 6 -4 5 -9 -1 -13 -5 -3 -15 8 -22 24 -7 17 -19 30 -26 30 -21 0 -17 -12
24 -76 48 -74 131 -145 228 -195 80 -41 114 -49 114 -24 0 8 7 15 15 15 18 0
20 -26 3 -33 -7 -3 14 -6 48 -6 l61 -1 164 -155 c90 -85 166 -150 168 -143 2
6 -7 20 -20 30 -35 26 -73 64 -141 143 -46 52 -32 41 55 -45 64 -63 117 -122
117 -131 0 -20 24 -42 35 -31 5 4 5 2 2 -5 -4 -6 -3 -22 2 -36 11 -27 69 -89
79 -83 4 2 16 21 27 42 11 21 28 47 38 57 18 19 15 37 -7 37 -7 0 -21 9 -31
20 -10 11 -22 20 -27 20 -16 0 -7 -29 14 -44 12 -9 17 -16 11 -16 -19 0 -43
30 -43 54 0 29 -254 281 -272 270 -7 -4 -8 -3 -4 4 4 6 -8 28 -27 48 l-33 37
46 48 c64 67 87 141 70 225 -19 92 -54 152 -135 229 -85 81 -180 135 -246 138
-24 1 -47 7 -51 12 -5 6 -11 5 -17 -4 -6 -9 -11 -10 -15 -2 -8 13 -91 14 -123
1z m353 -102 l29 -33 -35 30 c-19 17 -37 31 -39 33 -2 1 0 2 5 2 6 0 23 -15
40 -32z m-155 -4 c30 -9 78 -29 107 -45 34 -19 52 -25 53 -17 1 7 4 2 8 -12 4
-14 16 -29 26 -34 20 -9 37 -34 77 -116 64 -130 -22 -272 -166 -272 -120 0
-239 69 -323 187 -140 199 -15 377 218 309z m134 -24 c10 -11 16 -20 13 -20
-3 0 -13 9 -23 20 -10 11 -16 20 -13 20 3 0 13 -9 23 -20z m-435 -30 c0 -5 -7
-10 -15 -10 -8 0 -15 5 -15 10 0 6 7 10 15 10 8 0 15 -4 15 -10z m540 -10 c0
-5 -7 -10 -15 -10 -8 0 -15 5 -15 10 0 6 7 10 15 10 8 0 15 -4 15 -10z m-543
-157 c-3 -10 -5 -2 -5 17 0 19 2 27 5 18 2 -10 2 -26 0 -35z m0 -45 c-3 -8 -6
-5 -6 6 -1 11 2 17 5 13 3 -3 4 -12 1 -19z m78 -158 l50 -55 -52 50 c-29 27
-53 54 -53 59 0 5 1 7 3 5 1 -2 25 -29 52 -59z m85 -60 c0 -5 -7 -10 -15 -10
-8 0 -15 5 -15 10 0 6 7 10 15 10 8 0 15 -4 15 -10z m350 -125 c35 -36 62 -65
59 -65 -2 0 -34 29 -69 65 -35 36 -62 65 -59 65 2 0 34 -29 69 -65z m210 -101
c0 -9 -5 -14 -12 -12 -18 6 -21 28 -4 28 9 0 16 -7 16 -16z m40 -101 c82 -85
44 -55 -60 45 -36 35 -54 57 -40 48 14 -9 59 -51 100 -93z m152 -158 l31 -40
-36 34 c-33 31 -37 40 -35 80 l1 46 4 -40 c3 -25 16 -55 35 -80z m-25 -19 c0
-8 -6 -12 -14 -9 -7 3 -10 9 -7 14 8 14 21 11 21 -5z"/>
<path d="M3640 3669 c0 -5 -4 -7 -10 -4 -16 10 -34 -6 -19 -17 10 -6 6 -7 -11
-3 -20 4 -50 -14 -157 -92 -72 -54 -179 -133 -237 -176 -63 -46 -106 -85 -106
-95 0 -11 -3 -13 -8 -6 -7 11 -151 -91 -301 -213 -29 -24 -57 -43 -62 -43 -5
0 -9 -16 -9 -36 0 -32 -10 -45 -100 -131 -96 -91 -100 -97 -100 -137 0 -23 -5
-47 -12 -54 -7 -7 -45 -12 -97 -12 l-86 -1 -48 -69 c-45 -66 -46 -69 -25 -73
21 -4 20 -4 -3 -6 -17 -1 -28 -8 -32 -21 -4 -17 1 -19 47 -23 l51 -3 -52 -2
c-47 -2 -53 -5 -59 -27 -10 -41 0 -49 26 -21 25 25 80 37 80 16 0 -5 -12 -10
-27 -10 -17 0 -39 -12 -58 -30 l-32 -31 5 -104 5 -104 -72 -74 c-39 -40 -68
-77 -64 -80 3 -4 -3 -7 -15 -7 -22 0 -31 15 -13 22 6 2 42 34 80 72 l71 68 -1
67 c-1 55 -2 61 -10 36 -5 -17 -22 -37 -39 -47 -20 -12 -29 -22 -24 -30 4 -7
3 -9 -1 -5 -5 4 -77 -60 -160 -143 -145 -145 -154 -152 -196 -155 -24 -1 -50
-3 -56 -4 -7 0 -13 -14 -13 -31 l0 -30 64 0 64 0 47 -52 c91 -102 106 -178 56
-283 -29 -63 -54 -93 -134 -161 -34 -30 -45 -46 -41 -59 6 -13 27 3 107 82 55
54 97 92 93 86 -5 -9 2 -12 26 -10 29 2 35 8 49 47 12 33 14 47 5 52 -8 5 -7
8 3 8 11 0 11 3 1 15 -10 12 -9 15 6 16 15 0 16 2 4 7 -16 7 -20 25 -7 38 4 4
7 -1 7 -12 1 -17 1 -18 11 -2 10 19 -4 93 -27 139 -12 24 -87 99 -100 99 -3 0
-2 -10 1 -21 5 -15 4 -19 -4 -15 -13 9 -15 116 -2 116 6 0 7 -17 5 -37 l-6
-38 36 39 c20 21 36 42 36 47 0 5 5 8 11 7 6 -2 14 3 17 11 3 10 0 12 -12 8
-9 -4 -16 -2 -16 3 0 6 11 10 25 10 18 0 47 20 94 63 104 95 111 109 111 203
0 77 1 81 33 112 32 31 35 32 123 32 75 0 94 3 107 18 10 10 17 24 17 30 0 14
-16 16 -25 3 -8 -14 -77 -1 -100 19 -11 10 -26 16 -33 14 -7 -1 -8 0 -3 2 5 3
7 20 4 38 -13 79 77 151 136 110 14 -10 21 -11 21 -3 0 6 6 9 14 6 7 -3 20 0
27 6 8 7 3 0 -9 -14 -15 -17 -20 -29 -13 -34 6 -3 12 -16 12 -28 1 -17 2 -18
6 -4 2 9 12 17 22 17 25 0 75 60 77 93 3 41 14 46 14 6 -1 -23 -10 -45 -30
-69 -17 -19 -30 -42 -30 -52 0 -12 -8 -18 -23 -18 -18 0 -28 -10 -42 -40 -10
-22 -15 -43 -11 -47 4 -4 31 17 59 47 29 30 86 86 127 124 97 89 235 220 386
365 66 64 155 149 197 190 42 40 77 77 77 82 0 5 6 9 13 9 18 0 180 166 173
178 -3 6 -2 13 4 17 5 3 10 0 10 -6 0 -7 20 7 45 31 39 39 45 49 45 87 0 31
-4 43 -15 43 -10 0 -15 -15 -17 -57 l-3 -58 -5 63 -5 62 28 0 c25 0 27 -3 27
-42 0 -24 4 -38 8 -33 4 6 39 40 78 77 60 56 68 68 53 73 -10 4 -23 4 -28 1
-5 -4 -11 -2 -13 3 -1 6 -22 13 -45 17 -39 6 -43 5 -43 -15 0 -14 -6 -21 -17
-20 -11 0 -13 3 -5 6 14 6 16 33 2 33 -5 0 -10 -5 -10 -11z m70 -29 c0 -5 -4
-10 -10 -10 -5 0 -10 5 -10 10 0 6 5 10 10 10 6 0 10 -4 10 -10z m-32 -69 l-1
-36 -4 33 c-4 29 -7 32 -41 33 -37 1 -37 1 -7 8 45 11 55 3 53 -38z m-98 -106
c0 -19 -4 -35 -8 -35 -4 0 -6 16 -4 35 2 19 6 35 8 35 2 0 4 -16 4 -35z m-50
-61 c0 -6 -11 -11 -25 -11 -23 0 -31 7 -20 18 9 10 45 4 45 -7z m-30 -44 c0
-5 -5 -10 -11 -10 -5 0 -7 5 -4 10 3 6 8 10 11 10 2 0 4 -4 4 -10z m-390 -158
c0 -21 -18 -45 -75 -102 l-74 -74 -4 -100 -3 -101 -2 100 -2 100 75 77 c66 66
75 80 69 102 -4 16 -2 26 5 26 6 0 11 -12 11 -28z m-195 -80 c0 -18 -20 -15
-23 4 -3 10 1 15 10 12 7 -3 13 -10 13 -16z m199 -10 c3 -5 -1 -9 -9 -9 -8 0
-12 4 -9 9 3 4 7 8 9 8 2 0 6 -4 9 -8z m-224 -22 c0 -5 -4 -10 -10 -10 -5 0
-10 5 -10 10 0 6 5 10 10 10 6 0 10 -4 10 -10z m258 -47 c-21 -2 -55 -2 -75 0
-21 2 -4 4 37 4 41 0 58 -2 38 -4z m-70 -20 c-10 -2 -18 -13 -18 -24 0 -10 -7
-19 -15 -19 -8 0 -15 9 -15 19 0 19 18 29 50 29 10 0 9 -2 -2 -5z m65 0 c-7
-2 -21 -2 -30 0 -10 3 -4 5 12 5 17 0 24 -2 18 -5z m-338 -134 c0 -8 -6 -14
-13 -14 -7 0 -53 -35 -102 -78 l-89 -78 -3 -66 c-3 -62 -5 -67 -38 -91 l-35
-26 33 35 c28 31 32 42 32 89 l0 55 97 96 c95 92 118 108 118 78z m195 1 c0
-11 -7 -20 -15 -20 -15 0 -21 21 -8 33 12 13 23 7 23 -13z m-237 -205 c-3 -9
-8 -14 -10 -11 -3 3 -2 9 2 15 9 16 15 13 8 -4z m-403 -89 c0 -2 -8 -10 -17
-17 -16 -13 -17 -12 -4 4 13 16 21 21 21 13z m-10 -210 c0 -2 -8 -10 -17 -17
-16 -13 -17 -12 -4 4 13 16 21 21 21 13z m-118 -41 c0 -5 -5 -11 -11 -13 -6
-2 -11 4 -11 13 0 9 5 15 11 13 6 -2 11 -8 11 -13z m-72 -199 c0 -2 -43 -45
-95 -97 -55 -53 -95 -102 -96 -113 -1 -19 -2 -19 -6 -2 -4 14 22 45 93 117 94
95 104 104 104 95z m-390 -301 c0 -8 -4 -15 -9 -15 -13 0 -22 16 -14 24 11 11
23 6 23 -9z m248 -159 c3 -12 -1 -17 -10 -14 -7 3 -15 13 -16 22 -3 12 1 17
10 14 7 -3 15 -13 16 -22z"/>
<path d="M2669 2973 c-129 -101 -187 -156 -184 -174 2 -10 -1 -22 -7 -25 -6
-4 -8 -3 -5 2 3 6 2 16 -4 24 -6 11 -9 4 -10 -25 -2 -30 -3 -33 -6 -12 -2 15
-9 27 -15 27 -6 0 -8 -3 -5 -7 4 -3 -3 -11 -15 -17 -30 -15 -37 -41 -9 -33 11
3 21 1 21 -3 0 -5 -14 -10 -32 -12 -51 -5 -47 -28 5 -28 46 0 70 17 80 55 4
19 5 19 6 -1 0 -12 -7 -31 -18 -42 -15 -18 -29 -22 -75 -22 -31 0 -56 -4 -56
-10 0 -15 143 -13 158 2 7 7 12 30 12 52 0 38 6 46 101 136 80 75 100 100 97
118 l-3 23 -36 -28z"/>
<path d="M2194 2650 c14 -51 15 -84 5 -96 -6 -8 -9 -19 -7 -25 2 -7 17 9 32
36 l28 47 -32 32 c-32 30 -32 30 -26 6z"/>
<path d="M2396 2541 c-18 -20 -21 -63 -6 -92 15 -28 74 -26 94 3 9 12 16 32
16 44 0 45 -75 77 -104 45z"/>
<path d="M2649 2481 l-23 -19 33 -28 c19 -16 40 -33 47 -37 19 -11 18 -27 -1
-27 -8 0 -15 6 -15 14 0 7 -15 25 -34 40 l-35 26 -102 -98 c-64 -61 -96 -98
-86 -100 8 -2 17 -15 20 -31 4 -19 22 -38 61 -64 57 -38 72 -44 61 -27 -3 6
-1 10 5 10 7 0 10 -6 7 -14 -5 -13 21 -46 36 -46 4 0 28 -16 54 -36 39 -30 49
-34 51 -20 2 11 14 16 38 16 30 0 34 -3 34 -25 0 -19 -5 -25 -21 -25 -24 0
-34 8 131 -105 47 -32 92 -64 101 -72 10 -8 40 -29 68 -46 28 -18 102 -69 165
-114 109 -80 134 -95 121 -73 -3 6 -1 10 4 10 6 0 11 20 11 44 0 42 -3 46 -64
97 -40 33 -65 62 -65 75 -1 11 -6 25 -13 32 -28 28 5 9 42 -24 l40 -36 0 70 0
70 -156 138 c-129 114 -162 138 -188 139 -26 0 -31 4 -31 25 0 25 -76 100
-217 213 -29 24 -45 44 -41 53 7 20 -10 18 -38 -5z m57 -53 l29 -33 -32 29
c-31 28 -38 36 -30 36 2 0 16 -15 33 -32z m-58 -82 c2 -21 -1 -36 -7 -36 -6 0
-11 14 -11 32 0 17 -8 41 -17 52 -18 20 -18 20 7 5 18 -12 26 -27 28 -53z
m117 34 c10 -11 16 -20 13 -20 -3 0 -13 9 -23 20 -10 11 -16 20 -13 20 3 0 13
-9 23 -20z m-128 -162 c20 -20 49 -42 64 -49 16 -6 29 -18 29 -25 0 -21 -8
-17 -53 24 -88 80 -87 80 -85 146 l2 61 3 -60 c4 -53 8 -64 40 -97z m123 77
c0 -8 -7 -15 -15 -15 -8 0 -15 7 -15 15 0 8 7 15 15 15 8 0 15 -7 15 -15z m-7
-75 c30 -25 60 -54 67 -65 7 -11 -20 10 -61 46 -41 37 -75 75 -76 85 -3 17 -2
17 6 -1 6 -11 34 -40 64 -65z m114 -76 c-3 -3 -12 -4 -19 -1 -8 3 -5 6 6 6 11
1 17 -2 13 -5z m253 -114 c0 -10 -31 -18 -48 -13 -6 3 -10 8 -7 13 6 10 55 10
55 0z m-170 -15 c0 -8 -4 -15 -9 -15 -13 0 -22 16 -14 24 11 11 23 6 23 -9z
m88 -82 c-3 -35 -6 -38 -35 -41 -32 -3 -33 -2 -33 37 0 40 1 41 36 41 35 0 35
-1 32 -37z m161 -2 c-2 -6 -10 2 -17 17 -11 25 -11 25 4 10 9 -9 15 -21 13
-27z m16 -51 l20 -25 -22 19 c-13 11 -23 24 -23 29 0 6 1 8 3 6 1 -2 11 -15
22 -29z m-123 -45 c0 -26 -3 -49 -6 -52 -3 -4 -6 20 -6 52 0 32 3 56 6 53 3
-4 6 -27 6 -53z m245 -171 c-3 -3 -12 -4 -19 -1 -8 3 -5 6 6 6 11 1 17 -2 13
-5z"/>
<path d="M2257 2312 c-25 -26 -27 -35 -27 -106 0 -49 4 -75 10 -71 6 3 10 34
10 69 0 81 15 96 94 96 57 0 96 12 96 30 0 6 -35 10 -78 10 -73 0 -80 -2 -105
-28z"/>
<path d="M2269 2259 c-5 -11 -9 -38 -7 -61 l3 -40 38 34 c20 19 37 40 37 46 0
7 3 11 8 10 11 -2 42 13 42 21 0 4 -25 7 -55 8 -45 1 -57 -2 -66 -18z"/>
<path d="M2965 2210 c3 -5 8 -10 11 -10 2 0 4 5 4 10 0 6 -5 10 -11 10 -5 0
-7 -4 -4 -10z"/>
<path d="M3330 1842 l0 -72 77 0 c75 0 76 0 58 20 -10 11 -24 20 -32 20 -7 0
-12 6 -10 13 1 7 -10 13 -27 15 -22 3 -26 6 -15 13 11 7 11 9 -4 9 -10 0 -16
4 -13 9 3 4 -3 16 -14 26 -20 18 -20 17 -20 -53z m63 -29 c-7 -2 -19 -2 -25 0
-7 3 -2 5 12 5 14 0 19 -2 13 -5z m0 -30 c-7 -2 -19 -2 -25 0 -7 3 -2 5 12 5
14 0 19 -2 13 -5z m60 0 c-7 -2 -19 -2 -25 0 -7 3 -2 5 12 5 14 0 19 -2 13 -5z"/>
<path d="M1625 1836 c-57 -25 -147 -88 -199 -139 -56 -55 -125 -164 -151 -236
-23 -67 -19 -156 10 -220 23 -48 27 -52 43 -40 15 13 16 12 3 -4 -12 -15 -11
-20 5 -38 12 -14 25 -18 41 -14 13 3 23 1 23 -5 0 -6 5 -8 12 -4 8 5 9 2 5
-10 -9 -22 28 -36 93 -36 34 0 50 4 54 16 8 22 8 26 -3 19 -6 -3 -8 8 -4 28 5
33 4 34 -37 41 -36 6 -45 4 -57 -14 -19 -26 -35 -25 -62 4 -18 19 -22 33 -18
58 2 19 -2 45 -10 62 -39 76 16 217 127 326 108 106 224 149 321 117 l52 -16
-28 29 c-27 28 -34 30 -100 30 l-72 0 5 30 c5 34 -5 37 -53 16z m-105 -94 c0
-16 -89 -94 -99 -87 -6 3 -9 11 -5 16 3 5 9 7 14 4 4 -3 23 13 41 34 33 38 49
49 49 33z m-107 -129 c-7 -2 -13 -11 -13 -19 0 -9 -4 -13 -10 -9 -14 9 0 35
19 34 10 0 11 -2 4 -6z m-90 -330 c-7 -2 -19 -2 -25 0 -7 3 -2 5 12 5 14 0 19
-2 13 -5z"/>
<path d="M3260 1809 c0 -7 39 -48 86 -89 48 -41 136 -119 198 -172 102 -90
114 -97 154 -98 32 0 42 -4 42 -16 0 -13 8 -15 40 -12 28 2 40 0 40 -9 0 -17
10 -16 35 3 19 14 19 16 -19 52 -73 69 -105 90 -129 86 -19 -4 -19 -3 -3 4 16
7 8 18 -59 79 -46 43 -83 69 -91 66 -9 -3 -13 0 -10 8 3 8 -7 23 -22 34 -23
17 -39 20 -100 17 -52 -3 -70 -7 -65 -15 9 -15 -21 7 -64 47 -22 19 -33 25
-33 15z m300 -149 c0 -5 -2 -10 -4 -10 -3 0 -8 5 -11 10 -3 6 -1 10 4 10 6 0
11 -4 11 -10z m-64 -42 l29 -33 -32 29 c-31 28 -38 36 -30 36 2 0 16 -15 33
-32z m138 -91 c11 1 15 0 8 -3 -10 -5 -10 -9 -1 -20 26 -31 -9 -11 -42 23 -18
21 -23 29 -10 18 13 -11 33 -19 45 -18z m13 27 c-3 -3 -12 -4 -19 -1 -8 3 -5
6 6 6 11 1 17 -2 13 -5z m120 -106 c-3 -8 -6 -5 -6 6 -1 11 2 17 5 13 3 -3 4
-12 1 -19z"/>
<path d="M3390 1630 c0 -26 4 -30 26 -30 38 0 64 -18 63 -43 -1 -20 -2 -20 -6
-2 -7 26 -21 35 -55 35 -42 0 -36 -31 11 -62 35 -23 40 -24 44 -10 4 13 5 12
6 -4 1 -17 6 -20 30 -16 20 3 30 -1 35 -14 3 -9 4 -19 1 -22 -3 -3 -5 0 -5 6
0 7 -7 12 -16 12 -13 0 -14 -3 -4 -14 13 -16 103 -76 113 -76 4 0 7 13 7 29 0
25 -15 43 -99 116 -55 47 -103 90 -106 95 -3 5 -15 15 -26 20 -17 10 -19 7
-19 -20z"/>
<path d="M3675 1429 c-27 -6 -26 -7 13 -8 23 0 42 3 42 7 0 10 -14 10 -55 1z"/>
<path d="M3650 1396 c0 -14 21 -26 47 -26 8 0 13 7 11 17 -4 21 -58 30 -58 9z"/>
<path d="M3721 1388 c0 -22 1 -22 9 -3 7 16 9 17 9 3 1 -14 6 -15 36 -5 48 14
44 27 -10 27 -40 0 -45 -2 -44 -22z"/>
<path d="M1930 1383 c-32 -12 -170 -158 -170 -180 0 -34 14 -35 56 -4 52 37
164 158 164 176 0 15 -22 18 -50 8z"/>
</g>
</svg>
